<svg width="35" height="35" viewBox="0 0 35 35" fill="none" xmlns="http://www.w3.org/2000/svg">
<path d="M4.43671 12.2456V12.5937H4.78474H29.8432H30.1913V12.2456V10.6795C30.1913 9.89488 29.8796 9.14243 29.3248 8.58764C28.77 8.03285 28.0176 7.72118 27.233 7.72118H7.395C6.61041 7.72118 5.85796 8.03285 5.30317 8.58764C4.74838 9.14243 4.43671 9.89488 4.43671 10.6795V12.2456ZM30.1913 14.3338V13.9858H29.8432H4.78474H4.43671V14.3338V24.2528C4.43671 25.0374 4.74838 25.7899 5.30317 26.3447C5.85796 26.8994 6.61041 27.2111 7.395 27.2111H27.233C28.0176 27.2111 28.77 26.8994 29.3248 26.3447C29.8796 25.7899 30.1913 25.0374 30.1913 24.2528V14.3338ZM3.04457 10.6795C3.04457 9.52566 3.50292 8.41911 4.31878 7.60325C5.13465 6.78739 6.2412 6.32904 7.395 6.32904H27.233C28.3868 6.32904 29.4933 6.78739 30.3092 7.60325C31.1251 8.41911 31.5834 9.52566 31.5834 10.6795V24.2528C31.5834 25.4066 31.1251 26.5132 30.3092 27.329C29.4933 28.1449 28.3868 28.6033 27.233 28.6033H7.395C6.2412 28.6033 5.13465 28.1449 4.31878 27.329C3.50292 26.5132 3.04457 25.4066 3.04457 24.2528V10.6795ZM22.5345 20.9465H25.6668C25.8514 20.9465 26.0285 21.0198 26.159 21.1504C26.2896 21.2809 26.3629 21.458 26.3629 21.6426C26.3629 21.8272 26.2896 22.0042 26.159 22.1348C26.0285 22.2653 25.8514 22.3386 25.6668 22.3386H22.5345C22.3499 22.3386 22.1729 22.2653 22.0423 22.1348C21.9118 22.0042 21.8384 21.8272 21.8384 21.6426C21.8384 21.458 21.9118 21.2809 22.0423 21.1504C22.1729 21.0198 22.3499 20.9465 22.5345 20.9465Z" fill="#4CAF4F" stroke="#4CAF4F" stroke-width="0.696069"/>
</svg>
