<svg width="34" height="35" viewBox="0 0 34 35" fill="none" xmlns="http://www.w3.org/2000/svg">
<path d="M28.0713 29.9954V27.2111C28.0713 25.7343 27.4847 24.3179 26.4403 23.2736C25.396 22.2293 23.9797 21.6426 22.5028 21.6426H21.1106C20.7414 21.6426 20.3873 21.4959 20.1263 21.2348C19.8652 20.9737 19.7185 20.6197 19.7185 20.2504V13.2897C19.7185 12.5513 19.4252 11.8431 18.903 11.321C18.3809 10.7988 17.6727 10.5055 16.9342 10.5055C16.1958 10.5055 15.4876 10.7988 14.9654 11.321C14.4433 11.8431 14.15 12.5513 14.15 13.2897V25.819L10.8088 21.3641C10.5495 21.0183 10.2132 20.7377 9.82656 20.5444C9.43995 20.3511 9.01364 20.2504 8.5814 20.2504H7.97721C6.77301 20.2504 5.79712 21.2263 5.79712 22.4305C5.79712 22.8259 5.90431 23.2143 6.10757 23.5526L9.97354 29.9954M16.9342 6.32904V4.9369V6.32904ZM25.2871 14.6819H26.6792H25.2871ZM7.18926 14.6819H8.5814H7.18926ZM10.451 8.19869L9.4668 7.21444L10.451 8.19869ZM23.4174 8.19869L24.4017 7.21444L23.4174 8.19869Z" fill="#4CAF4F"/>
<path d="M28.0713 29.9954V27.2111C28.0713 25.7343 27.4847 24.3179 26.4403 23.2736C25.396 22.2293 23.9797 21.6426 22.5028 21.6426H21.1106C20.7414 21.6426 20.3873 21.4959 20.1263 21.2348C19.8652 20.9737 19.7185 20.6197 19.7185 20.2504V13.2897C19.7185 12.5513 19.4252 11.8431 18.903 11.321C18.3809 10.7988 17.6727 10.5055 16.9342 10.5055V10.5055C16.1958 10.5055 15.4876 10.7988 14.9654 11.321C14.4433 11.8431 14.15 12.5513 14.15 13.2897V25.819L10.8088 21.3641C10.5495 21.0183 10.2132 20.7377 9.82656 20.5444C9.43995 20.3511 9.01364 20.2504 8.5814 20.2504H7.97721C6.77301 20.2504 5.79712 21.2263 5.79712 22.4305C5.79712 22.8259 5.90431 23.2143 6.10757 23.5526L9.97354 29.9954M16.9342 6.32904V4.9369M25.2871 14.6819H26.6792M7.18926 14.6819H8.5814M10.451 8.19869L9.4668 7.21444M23.4174 8.19869L24.4017 7.21444" stroke="#4CAF4F" stroke-width="1.39214" stroke-linecap="round" stroke-linejoin="round"/>
</svg>
