<svg width="34" height="35" viewBox="0 0 34 35" fill="none" xmlns="http://www.w3.org/2000/svg">
<g clip-path="url(#clip0_2303_1400)">
<path d="M32.4496 27.674L32.4496 27.674C32.5809 27.583 32.6927 27.4668 32.7787 27.3322L33.072 27.5195L32.7787 27.3322C32.8646 27.1976 32.9229 27.0473 32.9503 26.8899C32.9776 26.7325 32.9734 26.5713 32.9378 26.4156L33.2771 26.3382L32.9378 26.4156C32.9023 26.2599 32.8362 26.1128 32.7433 25.9829L32.7417 25.9807C31.4347 24.1228 29.6537 22.6489 27.5841 21.7123L27.0794 21.4839L27.5042 21.1284C28.764 20.0739 29.6682 18.6567 30.0937 17.0699C30.5192 15.4831 30.4453 13.8037 29.8821 12.2604C29.3189 10.7171 28.2938 9.38482 26.9463 8.44503C25.5987 7.50524 23.9943 7.00358 22.3514 7.00835L22.3499 7.00835C21.6187 7.00713 20.891 7.10809 20.1879 7.30828L20.1816 7.31006L20.1816 7.31C20.0254 7.35133 19.879 7.42332 19.7509 7.52178C19.6228 7.62023 19.5156 7.74319 19.4355 7.88349C19.3553 8.02378 19.3039 8.17862 19.2842 8.33897C19.2645 8.49933 19.2769 8.66201 19.3206 8.81753C19.3644 8.97306 19.4387 9.11832 19.5391 9.24487L19.2665 9.46124L19.5391 9.24487C19.6396 9.37142 19.7642 9.47672 19.9057 9.55465L19.7378 9.85952L19.9057 9.55465C20.0472 9.63257 20.2028 9.68157 20.3635 9.69878C20.5241 9.71598 20.6866 9.70106 20.8414 9.65488L20.8454 9.65369L20.8454 9.65371C21.3351 9.51402 21.8419 9.44363 22.3511 9.44459M32.4496 27.674L22.3504 9.79263M32.4496 27.674L32.4455 27.6769C32.2424 27.8221 31.9987 27.8999 31.749 27.8991C31.5537 27.8979 31.3614 27.8503 31.1881 27.7601C31.0149 27.67 30.8657 27.54 30.7526 27.3808M32.4496 27.674L30.4683 27.5816M22.3511 9.44459L22.3504 9.79263M22.3511 9.44459C22.3509 9.44459 22.3507 9.44459 22.3504 9.44459V9.79263M22.3511 9.44459C23.8277 9.44477 25.2438 10.0314 26.288 11.0756C27.3323 12.1199 27.919 13.5363 27.919 15.0131C27.919 16.49 27.3323 17.9064 26.288 18.9507C25.2437 19.995 23.8273 20.5817 22.3504 20.5817C22.0274 20.5817 21.7175 20.71 21.4891 20.9385C21.2607 21.1669 21.1323 21.4768 21.1323 21.7998C21.1323 22.1229 21.2607 22.4327 21.4891 22.6612C21.7175 22.8896 22.0274 23.0179 22.3504 23.0179H22.3508C23.9982 23.0198 25.6212 23.417 27.0832 24.1762C28.5452 24.9354 29.8035 26.0343 30.7526 27.3808M22.3504 9.79263C23.735 9.79263 25.0629 10.3426 26.0419 11.3217C27.0209 12.3007 27.571 13.6286 27.571 15.0131C27.571 16.3977 27.0209 17.7256 26.0419 18.7046C25.0629 19.6837 23.735 20.2337 22.3504 20.2337C21.9351 20.2337 21.5367 20.3987 21.243 20.6924C20.9493 20.9861 20.7843 21.3845 20.7843 21.7998C20.7843 22.2152 20.9493 22.6136 21.243 22.9073C21.5367 23.201 21.9351 23.366 22.3504 23.366C23.9422 23.3677 25.5102 23.7515 26.9228 24.4851C28.3354 25.2186 29.5513 26.2805 30.4683 27.5816M30.7526 27.3808C30.7525 27.3806 30.7524 27.3804 30.7522 27.3802L30.4683 27.5816M30.7526 27.3808C30.7527 27.3809 30.7528 27.381 30.7528 27.381L30.4683 27.5816M16.8667 21.1289L16.444 21.4845L16.9473 21.7123C19.0169 22.6489 20.7978 24.1228 22.1049 25.9807L22.1099 25.9878L22.1152 25.9946C22.2168 26.1247 22.2908 26.2741 22.3329 26.4336C22.375 26.5932 22.3842 26.7597 22.3599 26.9229C22.3357 27.0861 22.2786 27.2428 22.192 27.3832C22.1054 27.5237 21.9912 27.6452 21.8563 27.7402C21.7214 27.8352 21.5685 27.9018 21.4071 27.9359C21.2456 27.9701 21.0789 27.971 20.9171 27.9388C20.7552 27.9066 20.6016 27.8418 20.4656 27.7484C20.3295 27.655 20.2139 27.5349 20.1256 27.3955L20.1212 27.3884L20.1164 27.3816C19.1692 26.0325 17.9112 24.9314 16.4486 24.1712C14.986 23.411 13.3619 23.0142 11.7136 23.0142C10.0653 23.0142 8.4412 23.411 6.97864 24.1712C5.51607 24.9314 4.25803 26.0325 3.31087 27.3816L3.3101 27.3827C3.19875 27.5426 3.0503 27.6731 2.87746 27.763C2.70461 27.853 2.51253 27.8997 2.31768 27.8991L2.31555 27.8991C2.06566 27.9 1.82183 27.8222 1.61853 27.6769L1.61686 27.6757C1.35334 27.4897 1.17436 27.2068 1.11918 26.889C1.06401 26.5713 1.13706 26.2447 1.32231 25.9807C2.62941 24.1228 4.41036 22.6489 6.47998 21.7123L6.98329 21.4845L6.56053 21.1289C5.30411 20.0719 4.40309 18.6542 3.97963 17.0679C3.55618 15.4815 3.63077 13.8033 4.19329 12.2608C4.75582 10.7183 5.77907 9.38608 7.12432 8.44476C8.46957 7.50343 10.0717 6.99855 11.7136 6.99855C13.3555 6.99855 14.9577 7.50343 16.3029 8.44476C17.6482 9.38608 18.6714 10.7183 19.234 12.2608C19.7965 13.8033 19.8711 15.4815 19.4476 17.0679C19.0242 18.6542 18.1231 20.0719 16.8667 21.1289ZM7.08354 11.9194C6.47166 12.8352 6.14507 13.9118 6.14507 15.0131C6.14507 16.49 6.73175 17.9064 7.77606 18.9507C8.82037 19.995 10.2368 20.5817 11.7136 20.5817C12.815 20.5817 13.8916 20.2551 14.8073 19.6432C15.7231 19.0314 16.4368 18.1617 16.8583 17.1441C17.2798 16.1266 17.39 15.007 17.1752 13.9268C16.9603 12.8466 16.43 11.8544 15.6512 11.0756C14.8724 10.2968 13.8802 9.76645 12.8 9.55159C11.7198 9.33673 10.6002 9.447 9.58263 9.86847C8.56511 10.2899 7.69542 11.0037 7.08354 11.9194Z" fill="#4CAF4F" stroke="#4CAF4F" stroke-width="0.696069"/>
</g>
<defs>
<clipPath id="clip0_2303_1400">
<rect width="33.4113" height="33.4113" fill="white" transform="translate(0.228516 0.917725)"/>
</clipPath>
</defs>
</svg>
