<svg width="308" height="303" viewBox="0 0 308 303" fill="none" xmlns="http://www.w3.org/2000/svg">
<path d="M262.213 302.415C262.213 302.515 212.257 302.602 150.655 302.602C89.0519 302.602 39.0747 302.515 39.0747 302.415C39.0747 302.314 89.0231 302.228 150.655 302.228C212.286 302.228 262.213 302.321 262.213 302.415Z" fill="#263238"/>
<path d="M213.538 214.345C202.423 206.583 199.905 192.173 200.344 179.216C200.416 177.058 200.179 174.77 201.207 172.878C202.236 170.986 204.639 169.684 206.574 170.591C208.178 171.346 208.876 173.216 209.776 174.763C210.975 176.823 212.734 178.502 214.847 179.605C216.221 180.324 217.926 180.756 219.286 180.008C221.157 178.979 221.372 176.411 221.358 174.252C221.358 170.238 221.334 166.229 221.286 162.224C221.157 160.074 221.375 157.916 221.934 155.836C222.603 153.793 224.092 151.9 226.128 151.325C228.164 150.749 230.703 151.936 231.163 154.037C231.243 154.927 231.264 155.821 231.228 156.713C231.286 157.613 231.703 158.598 232.545 158.872C233.386 159.145 234.264 158.519 234.912 157.886C237.127 155.728 238.638 152.915 240.041 150.138C241.444 147.361 242.818 144.505 244.832 142.138C246.847 139.771 249.631 137.894 252.746 137.714C255.861 137.534 259.105 139.448 259.882 142.469C260.659 145.491 258.897 148.577 257.005 151.03C254.149 154.671 250.784 157.882 247.012 160.562C246.276 160.964 245.688 161.592 245.336 162.353C244.868 163.792 246.228 165.231 247.645 165.684C249.249 166.217 250.99 166.051 252.681 166.253C254.372 166.454 256.17 167.188 256.81 168.771C257.688 170.972 255.846 173.274 254.041 174.785C250.415 177.806 246.298 180.184 241.868 181.813C240.286 182.389 238.624 182.9 237.343 184.008C236.063 185.115 235.3 187.051 236.07 188.569C236.84 190.087 238.818 190.569 240.48 190.259C242.142 189.95 243.616 189.058 245.199 188.461C248.156 187.346 251.969 187.547 253.832 190.101C254.409 190.981 254.775 191.982 254.899 193.027C255.024 194.072 254.905 195.131 254.551 196.122C253.831 198.095 252.723 199.902 251.292 201.439C246.581 207.068 240.459 211.346 233.552 213.834C226.696 216.208 220.344 216.856 213.531 214.359" fill="#4CAF4F"/>
<path d="M256.717 139.491C256.717 139.491 256.652 139.563 256.508 139.692L255.868 140.26C255.307 140.764 254.48 141.498 253.436 142.469C250.479 145.215 247.732 148.18 245.221 151.339C243.616 153.332 241.955 155.591 240.185 158.044C238.415 160.497 236.588 163.145 234.775 165.958C232.842 168.924 231.072 171.993 229.473 175.152C228.638 176.799 227.905 178.519 227.149 180.274L224.919 185.633C221.979 192.384 219.419 199.294 217.25 206.331C215.503 212.088 214.299 217.996 213.653 223.978C213.235 228.015 213.167 232.08 213.452 236.129C213.567 237.567 213.675 238.668 213.775 239.416C213.819 239.776 213.847 240.064 213.876 240.272V240.567C213.845 240.474 213.824 240.377 213.811 240.28C213.775 240.071 213.732 239.79 213.675 239.431C213.545 238.711 213.409 237.575 213.279 236.136C212.932 232.08 212.956 228.001 213.351 223.949C213.957 217.942 215.135 212.006 216.869 206.223C219.02 199.167 221.573 192.239 224.516 185.475L226.804 180.137C227.559 178.389 228.3 176.655 229.142 175.001C230.752 171.833 232.537 168.756 234.487 165.785C236.329 162.907 238.185 160.303 239.933 157.872C241.681 155.44 243.372 153.167 244.969 151.181C247.506 148.03 250.289 145.086 253.292 142.376C254.357 141.419 255.206 140.699 255.782 140.217L256.451 139.678C256.533 139.606 256.622 139.544 256.717 139.491Z" fill="#263238"/>
<path d="M229.235 174.986C229.134 174.69 229.064 174.384 229.027 174.073C228.912 173.475 228.782 172.634 228.631 171.54C228.322 169.382 228.005 166.425 227.667 163.152C227.329 159.879 226.948 156.915 226.631 154.778C226.466 153.713 226.322 152.857 226.221 152.26C226.143 151.955 226.102 151.641 226.099 151.325C226.223 151.613 226.312 151.915 226.365 152.224C226.523 152.814 226.703 153.663 226.905 154.735C227.315 156.893 227.718 159.828 228.056 163.109C228.394 166.389 228.682 169.267 228.905 171.504C229.012 172.511 229.106 173.368 229.178 174.051C229.234 174.359 229.253 174.673 229.235 174.986Z" fill="#263238"/>
<path d="M256.918 169.821C256.568 169.897 256.212 169.94 255.853 169.95C255.134 170.015 254.113 170.101 252.846 170.245C250.314 170.519 246.832 171.022 243.012 171.742C239.192 172.461 235.76 173.274 233.293 173.9C232.063 174.216 231.07 174.504 230.415 174.698C230.066 174.823 229.704 174.909 229.336 174.957C229.669 174.79 230.015 174.653 230.372 174.547C231.048 174.31 232.027 173.979 233.25 173.627C235.703 172.907 239.134 172.051 242.969 171.317C246.217 170.696 249.495 170.24 252.789 169.95C254.062 169.842 255.091 169.799 255.81 169.785C256.18 169.76 256.551 169.772 256.918 169.821Z" fill="#263238"/>
<path d="M217.221 205.719C217.145 205.615 217.082 205.501 217.034 205.381L216.559 204.381C216.149 203.511 215.595 202.223 214.934 200.647C213.595 197.482 211.89 193.05 210.078 188.13C208.265 183.209 206.596 178.777 205.329 175.576C204.711 174.022 204.2 172.749 203.819 171.799L203.416 170.771C203.36 170.652 203.321 170.526 203.301 170.396C203.377 170.501 203.44 170.614 203.488 170.735L203.963 171.735C204.365 172.605 204.927 173.893 205.588 175.468C206.927 178.634 208.632 183.065 210.444 187.986C212.257 192.907 213.926 197.338 215.193 200.54C215.811 202.093 216.322 203.367 216.696 204.316C216.862 204.726 216.998 205.036 217.106 205.345C217.162 205.464 217.201 205.59 217.221 205.719Z" fill="#263238"/>
<path d="M253.969 193.871C253.853 193.937 253.73 193.988 253.602 194.022L252.537 194.381L248.602 195.655C245.278 196.734 240.688 198.273 235.652 199.971C230.617 201.669 226.005 203.18 222.66 204.187C220.991 204.698 219.631 205.086 218.689 205.345L217.603 205.626C217.476 205.666 217.346 205.692 217.214 205.705C217.329 205.639 217.453 205.588 217.581 205.554L218.646 205.194L222.581 203.921C225.905 202.842 230.494 201.302 235.53 199.604C240.566 197.907 245.17 196.396 248.515 195.389C250.192 194.878 251.544 194.489 252.494 194.23L253.58 193.95C253.706 193.91 253.837 193.883 253.969 193.871Z" fill="#263238"/>
<path d="M238.976 19.3643L235.271 20.688L233.681 15.8464C230.761 6.91859 221.451 2.1777 212.898 5.19201C204.344 8.20632 199.79 17.9974 202.711 26.9253L204.301 31.7669L200.581 33.0978C199.163 33.6479 198.012 34.7234 197.366 36.1007C196.72 37.478 196.63 39.0512 197.114 40.4933L207.423 71.9961C207.637 72.71 207.992 73.3735 208.468 73.9474C208.943 74.5213 209.529 74.9937 210.191 75.3366C210.853 75.6795 211.577 75.8859 212.32 75.9436C213.063 76.0013 213.81 75.909 214.516 75.6722L252.911 61.9388C254.348 61.3896 255.516 60.3046 256.169 58.9119C256.823 57.5193 256.911 55.9275 256.415 54.4713L246.098 22.9685C245.879 22.2567 245.518 21.5963 245.038 21.0269C244.557 20.4574 243.967 19.9906 243.303 19.6542C242.638 19.3178 241.912 19.1188 241.169 19.069C240.426 19.0192 239.68 19.1196 238.976 19.3643ZM209.711 24.4002C208.923 22.0788 209.065 19.5427 210.105 17.3233C211.146 15.1038 213.005 13.3732 215.293 12.494C216.423 12.1074 217.619 11.9524 218.811 12.0382C220.002 12.1239 221.163 12.4488 222.226 12.9933C223.289 13.5378 224.231 14.2908 224.997 15.2075C225.762 16.1241 226.335 17.1855 226.682 18.3284L228.264 23.17L211.293 29.2418L209.711 24.4002ZM231.293 52.3563L233.926 60.3992C233.974 60.5605 233.959 60.7342 233.882 60.8843C233.806 61.0343 233.675 61.1492 233.516 61.205L229.825 62.5215C229.678 62.5622 229.522 62.5445 229.387 62.4721C229.253 62.3997 229.152 62.2782 229.106 62.133L226.451 54.126C224.988 54.0463 223.583 53.5213 222.426 52.6213C221.269 51.7213 220.414 50.4893 219.977 49.0902C219.351 47.2405 219.465 45.2206 220.295 43.4532C221.125 41.6858 222.607 40.308 224.43 39.6084C225.33 39.3009 226.283 39.1777 227.231 39.2462C228.18 39.3148 229.105 39.5736 229.952 40.0072C230.798 40.4409 231.549 41.0406 232.159 41.7705C232.769 42.5004 233.225 43.3456 233.501 44.2558C233.964 45.677 234.003 47.2024 233.612 48.645C233.221 50.0876 232.417 51.3849 231.3 52.3779L231.293 52.3563Z" fill="#4CAF4F"/>
<path d="M235.106 20.6017C235.106 20.7024 228.236 23.2851 219.689 26.3569C211.142 29.4288 204.171 31.8964 204.135 31.8244C204.099 31.7525 211.006 29.1482 219.559 26.0692C228.113 22.9901 235.07 20.5082 235.106 20.6017Z" fill="#263238"/>
<path d="M243.264 21.9254C243.295 21.9878 243.322 22.0528 243.343 22.1196C243.4 22.2635 243.465 22.4506 243.552 22.6808C243.739 23.2059 243.998 23.9325 244.321 24.839L247.084 32.8819C248.235 36.2919 249.609 40.335 251.134 44.8241C251.853 47.0758 252.702 49.4211 253.494 51.8887C253.917 53.1602 254.1 54.4996 254.033 55.8382C253.972 56.5344 253.774 57.2116 253.451 57.831C253.105 58.4482 252.643 58.993 252.091 59.4352C250.979 60.2465 249.746 60.8755 248.436 61.2985L244.731 62.6294L237.717 65.1401L225.84 69.3702L217.818 72.1903L215.66 72.9097L215.085 73.0967C215.023 73.1241 214.957 73.1411 214.89 73.1471C214.89 73.1471 214.948 73.1471 215.07 73.0608L215.631 72.8378L217.79 72.0248L225.768 69.0897L237.624 64.7732L244.623 62.2409L248.328 60.9028C249.601 60.497 250.798 59.8872 251.875 59.0971C252.389 58.6867 252.819 58.1811 253.141 57.6079C253.446 57.0351 253.63 56.4058 253.681 55.7591C253.747 54.4693 253.571 53.1785 253.163 51.9534C252.386 49.5074 251.566 47.1406 250.825 44.8888C249.328 40.3925 247.947 36.3351 246.854 32.9251C245.76 29.5151 244.839 26.7742 244.206 24.8462C243.904 23.9038 243.674 23.17 243.487 22.6376L243.314 22.0621C243.292 22.0185 243.276 21.9726 243.264 21.9254Z" fill="#263238"/>
<path d="M223.005 12.0048C223.005 12.0048 222.624 11.8178 221.919 11.53C220.914 11.1439 219.851 10.9299 218.775 10.8969C217.18 10.8422 215.593 11.142 214.128 11.7746C212.346 12.5623 210.823 13.8365 209.732 15.4508C208.635 17.0605 208.046 18.9627 208.042 20.9111C208.057 22.5079 208.299 24.0946 208.761 25.6232C209.135 26.9325 209.524 27.9756 209.783 28.7022C209.936 29.0713 210.061 29.4512 210.157 29.8389C209.952 29.4938 209.781 29.1301 209.646 28.7526C209.351 28.0332 208.927 27.0116 208.509 25.6951C207.997 24.1505 207.718 22.538 207.682 20.9111C207.663 18.8891 208.266 16.9101 209.409 15.2421C210.537 13.5689 212.123 12.2553 213.977 11.4581C215.488 10.822 217.124 10.5414 218.761 10.6379C219.86 10.694 220.94 10.9499 221.948 11.3933C222.217 11.5176 222.477 11.6619 222.725 11.825C222.827 11.8699 222.922 11.9306 223.005 12.0048Z" fill="#263238"/>
<path d="M223.336 40.1552C223.451 40.0856 223.571 40.0254 223.696 39.9753C224.056 39.8128 224.429 39.6805 224.811 39.5796C225.417 39.4007 226.043 39.2944 226.674 39.2631C227.533 39.2169 228.393 39.3467 229.2 39.6444C231.041 40.2919 232.732 42.1695 233.566 44.6802C233.966 46.0276 233.966 47.4622 233.566 48.8096C233.123 50.272 232.327 51.6034 231.25 52.6872L231.293 52.493C232.25 55.1188 233.293 57.9677 234.372 60.9388L234.437 61.1187L234.257 61.1834L232.609 61.7302L229.012 62.9316L228.833 62.9891L228.775 62.8093C227.789 59.8309 226.71 57.054 225.897 54.3275L226.056 54.4498C224.649 54.3329 223.308 53.8051 222.2 52.9318C221.197 52.1593 220.374 51.1772 219.79 50.0542C219.262 49.0583 219 47.9435 219.027 46.8169C219.06 45.6654 219.348 44.5356 219.869 43.5083C220.39 42.481 221.132 41.5816 222.041 40.8746C222.416 40.5707 222.836 40.3279 223.286 40.1552C222.88 40.3963 222.486 40.658 222.106 40.9393C221.107 41.7845 220.342 42.8719 219.883 44.0975C219.49 45.0217 219.305 46.0216 219.344 47.0253C219.383 48.0291 219.643 49.0119 220.106 49.9031C220.681 50.9835 221.484 51.9261 222.459 52.6656C223.516 53.4957 224.795 53.9961 226.135 54.1045H226.257L226.293 54.2124C227.084 56.8886 228.171 59.687 229.171 62.6798L228.933 62.5647L232.53 61.3633L234.171 60.8093L234.056 61.0539C232.984 58.0828 231.948 55.2267 230.998 52.6009V52.493L231.084 52.4067C232.13 51.3677 232.91 50.0919 233.358 48.6873C233.739 47.3985 233.739 46.0266 233.358 44.7378C232.574 42.3206 230.955 40.4861 229.2 39.8386C228.423 39.539 227.593 39.3995 226.761 39.4286C226.139 39.4428 225.521 39.5273 224.919 39.6804C223.847 39.9465 223.344 40.1911 223.336 40.1552Z" fill="#263238"/>
<path d="M201.099 247.876L129.238 247.546C125.088 247.523 121.117 245.854 118.196 242.905C115.276 239.956 113.646 235.969 113.663 231.819L114.425 51.6728C114.434 49.6168 114.847 47.5826 115.642 45.6865C116.438 43.7904 117.599 42.0696 119.059 40.6225C120.52 39.1753 122.251 38.0302 124.154 37.2526C126.058 36.475 128.096 36.0801 130.152 36.0905L202.006 36.4214C206.156 36.4424 210.128 38.1095 213.049 41.0568C215.971 44.0041 217.603 47.9905 217.588 52.1404L216.826 232.28C216.817 234.336 216.404 236.371 215.609 238.268C214.814 240.165 213.653 241.887 212.193 243.335C210.732 244.783 209.001 245.93 207.098 246.709C205.194 247.488 203.156 247.885 201.099 247.876Z" fill="#455A64"/>
<path d="M201.898 42.6155H187.97C187.516 42.6239 187.068 42.7218 186.651 42.9035C186.234 43.0853 185.858 43.3473 185.542 43.6746C185.227 44.002 184.979 44.3883 184.813 44.8114C184.647 45.2345 184.566 45.6862 184.575 46.1406V48.6657C184.583 49.1198 184.502 49.5711 184.336 49.9938C184.17 50.4166 183.922 50.8023 183.607 51.1291C183.291 51.4559 182.915 51.7172 182.498 51.8982C182.081 52.0791 181.633 52.1761 181.179 52.1836L154.029 52.0613C153.11 52.0368 152.239 51.6488 151.606 50.9825C150.974 50.3161 150.632 49.426 150.655 48.5075V45.9823C150.678 45.065 150.337 44.1759 149.706 43.5098C149.074 42.8437 148.205 42.4548 147.288 42.4285H142.389L130.195 42.3709C127.294 42.3537 124.505 43.4864 122.438 45.521C120.371 47.5557 119.195 50.3265 119.166 53.2268L118.447 229.064C118.44 230.503 118.717 231.929 119.262 233.261C119.806 234.593 120.608 235.804 121.62 236.826C122.633 237.848 123.837 238.661 125.164 239.218C126.491 239.774 127.914 240.064 129.353 240.071L201.064 240.402C202.503 240.409 203.93 240.131 205.263 239.587C206.596 239.042 207.808 238.24 208.831 237.226C209.854 236.213 210.667 235.008 211.224 233.68C211.781 232.353 212.071 230.928 212.078 229.488L212.797 53.6512C212.814 50.7428 211.676 47.9465 209.632 45.8771C207.588 43.8077 204.806 42.6345 201.898 42.6155Z" fill="white"/>
<path d="M192.251 216.942L138.928 216.712C138.374 216.712 137.928 216.108 137.935 215.374L137.993 201.424C137.993 200.705 138.446 200.086 139 200.086L192.323 200.331C192.629 200.384 192.904 200.554 193.089 200.804C193.274 201.055 193.355 201.367 193.315 201.676L193.265 215.611C193.265 216.352 192.805 216.949 192.251 216.942Z" fill="#4CAF4F"/>
<path d="M155.14 210.265C154.846 210.265 154.563 210.218 154.291 210.123C154.023 210.025 153.816 209.901 153.669 209.75L153.833 209.427C153.972 209.563 154.159 209.678 154.393 209.772C154.631 209.863 154.88 209.908 155.14 209.908C155.389 209.908 155.591 209.878 155.746 209.818C155.904 209.754 156.019 209.669 156.091 209.563C156.167 209.457 156.204 209.34 156.204 209.212C156.204 209.057 156.159 208.933 156.068 208.839C155.982 208.744 155.867 208.671 155.723 208.618C155.58 208.561 155.421 208.512 155.248 208.471C155.074 208.429 154.901 208.386 154.727 208.34C154.553 208.291 154.393 208.227 154.246 208.148C154.103 208.069 153.986 207.965 153.895 207.837C153.808 207.705 153.765 207.533 153.765 207.322C153.765 207.125 153.816 206.946 153.918 206.784C154.023 206.618 154.184 206.486 154.399 206.388C154.614 206.286 154.889 206.235 155.225 206.235C155.448 206.235 155.668 206.267 155.887 206.331C156.106 206.392 156.295 206.476 156.453 206.586L156.312 206.92C156.142 206.807 155.961 206.724 155.768 206.671C155.58 206.618 155.397 206.592 155.219 206.592C154.982 206.592 154.786 206.624 154.631 206.688C154.476 206.752 154.361 206.839 154.286 206.948C154.214 207.054 154.178 207.175 154.178 207.31C154.178 207.465 154.221 207.59 154.308 207.684C154.399 207.778 154.516 207.852 154.659 207.905C154.806 207.957 154.967 208.005 155.14 208.046C155.314 208.088 155.485 208.133 155.655 208.182C155.829 208.231 155.987 208.295 156.131 208.374C156.278 208.45 156.395 208.552 156.482 208.68C156.572 208.808 156.617 208.976 156.617 209.184C156.617 209.376 156.565 209.555 156.459 209.721C156.353 209.884 156.191 210.016 155.972 210.118C155.757 210.216 155.48 210.265 155.14 210.265ZM157.53 210.231V206.269H157.949V210.231H157.53ZM159.238 210.231V206.269H159.583L162.317 209.71H162.136V206.269H162.549V210.231H162.204L159.476 206.79H159.657V210.231H159.238ZM165.58 210.265C165.278 210.265 164.999 210.216 164.742 210.118C164.489 210.016 164.269 209.874 164.08 209.693C163.895 209.512 163.75 209.299 163.644 209.054C163.542 208.808 163.491 208.54 163.491 208.25C163.491 207.959 163.542 207.691 163.644 207.446C163.75 207.201 163.897 206.988 164.086 206.807C164.274 206.626 164.495 206.486 164.748 206.388C165.004 206.286 165.284 206.235 165.585 206.235C165.887 206.235 166.163 206.282 166.412 206.376C166.665 206.471 166.88 206.614 167.057 206.807L166.797 207.073C166.631 206.907 166.448 206.788 166.248 206.716C166.048 206.644 165.833 206.609 165.602 206.609C165.357 206.609 165.131 206.65 164.923 206.733C164.719 206.812 164.54 206.927 164.386 207.078C164.235 207.225 164.116 207.399 164.029 207.599C163.946 207.795 163.904 208.012 163.904 208.25C163.904 208.484 163.946 208.701 164.029 208.901C164.116 209.101 164.235 209.276 164.386 209.427C164.54 209.574 164.719 209.689 164.923 209.772C165.131 209.852 165.355 209.891 165.597 209.891C165.823 209.891 166.036 209.857 166.236 209.789C166.44 209.721 166.627 209.606 166.797 209.444L167.034 209.761C166.846 209.927 166.625 210.054 166.372 210.14C166.119 210.223 165.855 210.265 165.58 210.265ZM166.633 209.71V208.25H167.034V209.761L166.633 209.71ZM171.297 210.265C170.792 210.265 170.393 210.12 170.103 209.829C169.812 209.538 169.667 209.108 169.667 208.539V206.269H170.086V208.522C170.086 208.989 170.192 209.335 170.403 209.557C170.614 209.78 170.912 209.891 171.297 209.891C171.686 209.891 171.986 209.78 172.197 209.557C172.408 209.335 172.514 208.989 172.514 208.522V206.269H172.922V208.539C172.922 209.108 172.776 209.538 172.486 209.829C172.199 210.12 171.803 210.265 171.297 210.265ZM174.184 210.231V206.269H175.667C176.002 206.269 176.291 206.324 176.533 206.433C176.774 206.539 176.959 206.693 177.087 206.897C177.219 207.097 177.285 207.341 177.285 207.627C177.285 207.907 177.219 208.148 177.087 208.352C176.959 208.552 176.774 208.706 176.533 208.816C176.291 208.925 176.002 208.98 175.667 208.98H174.416L174.603 208.782V210.231H174.184ZM174.603 208.816L174.416 208.612H175.655C176.052 208.612 176.351 208.527 176.555 208.357C176.763 208.184 176.867 207.94 176.867 207.627C176.867 207.31 176.763 207.065 176.555 206.892C176.351 206.718 176.052 206.631 175.655 206.631H174.416L174.603 206.433V208.816Z" fill="#E8E8E3"/>
<path d="M149.564 94.305L131.061 94.221L131.046 97.6166L149.549 97.7005L149.564 94.305Z" fill="#4CAF4F"/>
<path opacity="0.1" d="M149.564 94.305L131.061 94.221L131.046 97.6166L149.549 97.7005L149.564 94.305Z" fill="black"/>
<path d="M203.804 115.153C203.95 115.139 204.092 115.105 204.229 115.053C204.428 114.975 204.601 114.842 204.728 114.67C204.856 114.499 204.932 114.294 204.948 114.081C204.948 112.937 204.948 111.268 204.948 109.125C204.948 108.053 204.948 106.851 204.948 105.528C204.948 105.204 204.948 104.866 204.948 104.528C204.995 104.2 204.924 103.865 204.747 103.585C204.648 103.451 204.519 103.341 204.37 103.265C204.222 103.189 204.058 103.148 203.891 103.146H202.768H192.373L132.202 102.923C132.048 102.921 131.895 102.955 131.758 103.024C131.62 103.093 131.501 103.194 131.411 103.319C131.237 103.6 131.17 103.935 131.223 104.261C131.223 104.981 131.223 105.7 131.223 106.42C131.223 107.858 131.223 109.297 131.223 110.736C131.223 111.455 131.223 112.175 131.223 112.894C131.194 113.229 131.194 113.566 131.223 113.901C131.261 114.045 131.331 114.178 131.429 114.29C131.526 114.403 131.648 114.491 131.785 114.549C131.926 114.605 132.078 114.632 132.231 114.628H135.892L151.87 114.714L178.92 114.88L197.157 115.024L202.114 115.081H203.401C203.696 115.081 203.84 115.081 203.84 115.081H203.401H202.114H197.157H178.92L151.87 114.995L135.892 114.93H132.231C132.029 114.938 131.828 114.904 131.641 114.83C131.451 114.749 131.283 114.626 131.148 114.47C131.014 114.314 130.916 114.129 130.864 113.93C130.822 113.741 130.808 113.548 130.821 113.355V112.822C130.821 112.103 130.821 111.384 130.821 110.664C130.821 109.225 130.821 107.787 130.821 106.348C130.821 105.628 130.821 104.909 130.821 104.189C130.807 103.998 130.807 103.806 130.821 103.614C130.848 103.402 130.929 103.201 131.058 103.031C131.182 102.858 131.346 102.717 131.537 102.62C131.727 102.524 131.938 102.475 132.151 102.477L192.323 102.808L202.718 102.88H203.84C204.038 102.88 204.233 102.928 204.408 103.02C204.583 103.111 204.734 103.243 204.848 103.405C205.05 103.718 205.132 104.094 205.078 104.463C205.078 104.801 205.078 105.139 205.078 105.463C205.078 106.772 205.078 107.974 205.078 109.06C205.078 111.218 205.027 112.873 205.013 114.024C204.995 114.245 204.915 114.457 204.781 114.634C204.647 114.811 204.466 114.946 204.258 115.024C204.121 115.108 203.965 115.153 203.804 115.153Z" fill="#E0E0E0"/>
<path d="M170.46 106.535H136.619V109.707H170.46V106.535Z" fill="#4CAF4F"/>
<path opacity="0.2" d="M170.46 106.535H136.619V109.707H170.46V106.535Z" fill="white"/>
<path d="M149.438 125.282L130.935 125.198L130.919 128.593L149.422 128.677L149.438 125.282Z" fill="#4CAF4F"/>
<path opacity="0.1" d="M149.438 125.282L130.935 125.198L130.919 128.593L149.422 128.677L149.438 125.282Z" fill="black"/>
<path d="M203.337 146.131C203.482 146.113 203.626 146.087 203.768 146.052C203.969 145.988 204.154 145.881 204.311 145.74C204.467 145.599 204.591 145.425 204.675 145.232C204.788 144.941 204.832 144.628 204.804 144.318C204.804 143.973 204.804 143.599 204.804 143.181C204.804 142.347 204.804 141.397 204.804 140.304V135.735C204.839 135.405 204.766 135.072 204.596 134.786C204.418 134.493 204.139 134.275 203.812 134.174C203.453 134.11 203.088 134.091 202.725 134.117H192.373L132.411 133.894C132.088 133.895 131.777 134.012 131.535 134.225C131.292 134.438 131.136 134.732 131.094 135.052C131.094 135.735 131.094 136.491 131.094 137.21C131.094 138.649 131.094 140.088 131.094 141.527C131.094 142.246 131.094 142.965 131.094 143.685C131.067 144.021 131.082 144.359 131.137 144.692C131.227 144.984 131.412 145.237 131.662 145.411C131.928 145.58 132.24 145.661 132.554 145.642H133.554H135.633L151.554 145.721L178.51 145.886L196.682 146.03L201.625 146.088H196.682H178.51L151.54 146.059L135.619 146.001H132.49C132.101 146.024 131.714 145.921 131.389 145.706C131.062 145.48 130.823 145.147 130.713 144.764C130.648 144.398 130.629 144.026 130.655 143.656C130.655 142.937 130.655 142.217 130.655 141.498C130.655 140.059 130.655 138.62 130.655 137.181C130.655 136.462 130.655 135.743 130.655 135.023C130.708 134.612 130.908 134.234 131.219 133.96C131.531 133.686 131.931 133.534 132.346 133.534L192.308 133.865L202.661 133.944C203.046 133.92 203.433 133.947 203.812 134.023C204.185 134.145 204.501 134.402 204.696 134.743C204.883 135.06 204.963 135.427 204.927 135.793C204.927 136.131 204.927 136.462 204.927 136.793C204.927 138.095 204.927 139.289 204.927 140.39C204.927 141.491 204.927 142.419 204.927 143.268C204.927 143.678 204.927 144.059 204.927 144.411C204.953 144.733 204.901 145.056 204.776 145.354C204.682 145.552 204.547 145.728 204.379 145.87C204.212 146.012 204.016 146.115 203.804 146.174C203.647 146.187 203.489 146.172 203.337 146.131Z" fill="#E0E0E0"/>
<path d="M149.298 157.604L130.795 157.52L130.78 160.915L149.283 160.999L149.298 157.604Z" fill="#4CAF4F"/>
<path opacity="0.1" d="M149.298 157.604L130.795 157.52L130.78 160.915L149.283 160.999L149.298 157.604Z" fill="black"/>
<path d="M203.193 178.439C203.338 178.422 203.483 178.396 203.625 178.36C203.825 178.297 204.009 178.191 204.165 178.051C204.321 177.911 204.446 177.739 204.531 177.547C204.644 177.257 204.688 176.944 204.66 176.634C204.66 176.281 204.66 175.914 204.66 175.49C204.66 174.663 204.66 173.706 204.66 172.612V168.044C204.695 167.713 204.622 167.38 204.452 167.094C204.27 166.807 203.992 166.592 203.668 166.49C203.31 166.424 202.945 166.402 202.581 166.425H192.229L132.267 166.202C131.944 166.203 131.633 166.321 131.391 166.534C131.149 166.747 130.992 167.041 130.95 167.361C130.95 168.08 130.95 168.799 130.95 169.519C130.95 170.958 130.95 172.396 130.95 173.835C130.95 174.555 130.95 175.274 130.95 175.993C130.923 176.327 130.938 176.663 130.993 176.993C131.079 177.287 131.265 177.541 131.518 177.713C131.783 177.885 132.096 177.966 132.411 177.943H135.54L151.46 178.029L178.417 178.195L196.589 178.339L201.531 178.396H196.589H178.417L151.46 178.317L135.54 178.252H132.411C132.021 178.279 131.634 178.175 131.31 177.957C130.982 177.731 130.744 177.398 130.634 177.015C130.569 176.649 130.55 176.277 130.576 175.907C130.576 175.188 130.576 174.468 130.576 173.749C130.576 172.31 130.576 170.871 130.576 169.432C130.576 168.713 130.576 167.994 130.576 167.238C130.627 166.827 130.826 166.449 131.136 166.175C131.446 165.901 131.846 165.749 132.259 165.749L192.222 166.08L202.574 166.159C202.96 166.135 203.347 166.162 203.725 166.238C204.099 166.36 204.414 166.617 204.61 166.958C204.796 167.275 204.877 167.642 204.84 168.008C204.84 168.346 204.84 168.684 204.84 169.008C204.84 170.31 204.84 171.504 204.84 172.605C204.84 173.706 204.84 174.634 204.84 175.483C204.84 175.893 204.84 176.274 204.84 176.626C204.868 176.948 204.816 177.272 204.689 177.569C204.596 177.767 204.461 177.943 204.293 178.085C204.126 178.227 203.929 178.33 203.718 178.389C203.549 178.447 203.369 178.464 203.193 178.439Z" fill="#E0E0E0"/>
<path d="M169.737 138.409L135.897 138.256L135.883 141.428L169.723 141.582L169.737 138.409Z" fill="#4CAF4F"/>
<path opacity="0.2" d="M169.737 138.409L135.897 138.256L135.883 141.428L169.723 141.582L169.737 138.409Z" fill="white"/>
<path d="M138.957 172.569C138.936 172.858 138.83 173.135 138.653 173.365C138.476 173.595 138.235 173.768 137.961 173.862C137.687 173.956 137.39 173.968 137.109 173.896C136.828 173.823 136.575 173.67 136.38 173.455C136.186 173.24 136.058 172.972 136.014 172.686C135.97 172.399 136.011 172.105 136.132 171.842C136.254 171.578 136.45 171.356 136.696 171.202C136.942 171.049 137.228 170.971 137.518 170.979C137.919 171.001 138.295 171.181 138.564 171.479C138.834 171.776 138.975 172.168 138.957 172.569Z" fill="#4CAF4F"/>
<path d="M143.54 172.591C143.554 172.793 143.526 172.997 143.458 173.189C143.39 173.38 143.284 173.556 143.145 173.705C143.006 173.853 142.839 173.972 142.652 174.053C142.466 174.134 142.265 174.176 142.061 174.176C141.858 174.176 141.657 174.134 141.47 174.053C141.284 173.972 141.116 173.853 140.978 173.705C140.839 173.556 140.732 173.38 140.664 173.189C140.597 172.997 140.569 172.793 140.583 172.591C140.569 172.388 140.597 172.184 140.664 171.993C140.732 171.801 140.839 171.625 140.978 171.477C141.116 171.328 141.284 171.209 141.47 171.128C141.657 171.047 141.858 171.005 142.061 171.005C142.265 171.005 142.466 171.047 142.652 171.128C142.839 171.209 143.006 171.328 143.145 171.477C143.284 171.625 143.39 171.801 143.458 171.993C143.526 172.184 143.554 172.388 143.54 172.591Z" fill="#4CAF4F"/>
<path d="M148.129 172.612C148.108 172.902 148.002 173.178 147.825 173.408C147.648 173.638 147.408 173.811 147.133 173.905C146.859 174 146.563 174.011 146.282 173.939C146.001 173.867 145.747 173.713 145.553 173.498C145.358 173.283 145.231 173.015 145.187 172.729C145.143 172.442 145.184 172.148 145.305 171.885C145.426 171.621 145.622 171.399 145.868 171.246C146.115 171.092 146.401 171.015 146.691 171.022C147.091 171.046 147.465 171.226 147.734 171.524C148.003 171.821 148.145 172.212 148.129 172.612Z" fill="#4CAF4F"/>
<path d="M152.712 172.634C152.691 172.923 152.585 173.2 152.408 173.43C152.231 173.66 151.99 173.832 151.716 173.927C151.442 174.021 151.146 174.033 150.865 173.96C150.584 173.888 150.33 173.735 150.135 173.52C149.941 173.305 149.813 173.037 149.769 172.75C149.725 172.463 149.766 172.17 149.888 171.906C150.009 171.643 150.205 171.421 150.451 171.267C150.697 171.114 150.983 171.036 151.273 171.044C151.673 171.068 152.048 171.248 152.317 171.545C152.586 171.842 152.728 172.233 152.712 172.634Z" fill="#4CAF4F"/>
<path d="M157.295 172.648C157.275 172.938 157.17 173.216 156.994 173.446C156.818 173.677 156.577 173.851 156.303 173.947C156.029 174.042 155.732 174.055 155.451 173.983C155.169 173.912 154.915 173.759 154.72 173.544C154.524 173.329 154.396 173.061 154.352 172.774C154.307 172.487 154.348 172.193 154.469 171.929C154.59 171.665 154.786 171.443 155.033 171.289C155.279 171.135 155.566 171.058 155.856 171.065C156.255 171.09 156.628 171.269 156.897 171.564C157.166 171.86 157.309 172.249 157.295 172.648Z" fill="#4CAF4F"/>
<path d="M161.885 172.67C161.865 172.958 161.761 173.234 161.587 173.465C161.412 173.695 161.174 173.869 160.902 173.966C160.629 174.062 160.335 174.077 160.054 174.009C159.773 173.94 159.519 173.791 159.322 173.579C159.125 173.368 158.994 173.104 158.945 172.819C158.897 172.534 158.932 172.241 159.048 171.976C159.163 171.711 159.354 171.486 159.596 171.328C159.838 171.17 160.121 171.086 160.41 171.087C160.815 171.102 161.198 171.277 161.474 171.574C161.751 171.87 161.898 172.265 161.885 172.67Z" fill="#4CAF4F"/>
<path d="M166.467 172.691C166.481 172.894 166.454 173.098 166.386 173.289C166.318 173.481 166.211 173.657 166.073 173.805C165.934 173.954 165.766 174.073 165.58 174.154C165.393 174.235 165.192 174.277 164.989 174.277C164.785 174.277 164.584 174.235 164.398 174.154C164.211 174.073 164.044 173.954 163.905 173.805C163.766 173.657 163.66 173.481 163.592 173.289C163.524 173.098 163.496 172.894 163.51 172.691C163.496 172.489 163.524 172.285 163.592 172.093C163.66 171.902 163.766 171.726 163.905 171.577C164.044 171.429 164.211 171.31 164.398 171.229C164.584 171.148 164.785 171.106 164.989 171.106C165.192 171.106 165.393 171.148 165.58 171.229C165.766 171.31 165.934 171.429 166.073 171.577C166.211 171.726 166.318 171.902 166.386 172.093C166.454 172.285 166.481 172.489 166.467 172.691Z" fill="#4CAF4F"/>
<path d="M171.05 172.713C171.03 173.001 170.927 173.278 170.752 173.508C170.577 173.738 170.339 173.912 170.067 174.009C169.795 174.105 169.5 174.12 169.219 174.052C168.939 173.983 168.684 173.834 168.487 173.623C168.29 173.411 168.159 173.147 168.111 172.862C168.062 172.577 168.098 172.284 168.213 172.019C168.329 171.754 168.519 171.529 168.761 171.371C169.003 171.213 169.286 171.13 169.575 171.13C169.98 171.145 170.363 171.32 170.639 171.617C170.916 171.914 171.063 172.308 171.05 172.713Z" fill="#4CAF4F"/>
<path d="M175.632 172.735C175.613 173.024 175.508 173.302 175.332 173.533C175.155 173.764 174.915 173.938 174.641 174.033C174.366 174.128 174.07 174.141 173.788 174.07C173.507 173.998 173.253 173.845 173.057 173.63C172.862 173.415 172.734 173.148 172.689 172.861C172.645 172.573 172.686 172.28 172.807 172.016C172.928 171.752 173.124 171.529 173.37 171.375C173.617 171.222 173.903 171.144 174.194 171.152C174.592 171.176 174.966 171.355 175.235 171.651C175.504 171.946 175.646 172.335 175.632 172.735Z" fill="#4CAF4F"/>
<g opacity="0.2">
<path d="M138.957 172.569C138.936 172.858 138.83 173.135 138.653 173.365C138.476 173.595 138.235 173.768 137.961 173.862C137.687 173.956 137.39 173.968 137.109 173.896C136.828 173.823 136.575 173.67 136.38 173.455C136.186 173.24 136.058 172.972 136.014 172.686C135.97 172.399 136.011 172.105 136.132 171.842C136.254 171.578 136.45 171.356 136.696 171.202C136.942 171.049 137.228 170.971 137.518 170.979C137.919 171.001 138.295 171.181 138.564 171.479C138.834 171.776 138.975 172.168 138.957 172.569Z" fill="white"/>
<path d="M143.54 172.591C143.554 172.793 143.526 172.997 143.458 173.189C143.39 173.38 143.284 173.556 143.145 173.705C143.006 173.853 142.839 173.972 142.652 174.053C142.466 174.134 142.265 174.176 142.061 174.176C141.858 174.176 141.657 174.134 141.47 174.053C141.284 173.972 141.116 173.853 140.978 173.705C140.839 173.556 140.732 173.38 140.664 173.189C140.597 172.997 140.569 172.793 140.583 172.591C140.569 172.388 140.597 172.184 140.664 171.993C140.732 171.801 140.839 171.625 140.978 171.477C141.116 171.328 141.284 171.209 141.47 171.128C141.657 171.047 141.858 171.005 142.061 171.005C142.265 171.005 142.466 171.047 142.652 171.128C142.839 171.209 143.006 171.328 143.145 171.477C143.284 171.625 143.39 171.801 143.458 171.993C143.526 172.184 143.554 172.388 143.54 172.591Z" fill="white"/>
<path d="M148.129 172.612C148.108 172.902 148.002 173.178 147.825 173.408C147.648 173.638 147.408 173.811 147.133 173.905C146.859 174 146.563 174.011 146.282 173.939C146.001 173.867 145.747 173.713 145.553 173.498C145.358 173.283 145.231 173.015 145.187 172.729C145.143 172.442 145.184 172.148 145.305 171.885C145.426 171.621 145.622 171.399 145.868 171.246C146.115 171.092 146.401 171.015 146.691 171.022C147.091 171.046 147.465 171.226 147.734 171.524C148.003 171.821 148.145 172.212 148.129 172.612Z" fill="white"/>
<path d="M152.712 172.634C152.691 172.923 152.585 173.2 152.408 173.43C152.231 173.66 151.99 173.832 151.716 173.927C151.442 174.021 151.146 174.033 150.865 173.96C150.584 173.888 150.33 173.735 150.135 173.52C149.941 173.305 149.813 173.037 149.769 172.75C149.725 172.463 149.766 172.17 149.888 171.906C150.009 171.643 150.205 171.421 150.451 171.267C150.697 171.114 150.983 171.036 151.273 171.044C151.673 171.068 152.048 171.248 152.317 171.545C152.586 171.842 152.728 172.233 152.712 172.634Z" fill="white"/>
<path d="M157.295 172.648C157.275 172.938 157.17 173.216 156.994 173.446C156.818 173.677 156.577 173.851 156.303 173.947C156.029 174.042 155.732 174.055 155.451 173.983C155.169 173.912 154.915 173.759 154.72 173.544C154.524 173.329 154.396 173.061 154.352 172.774C154.307 172.487 154.348 172.193 154.469 171.929C154.59 171.665 154.786 171.443 155.033 171.289C155.279 171.135 155.566 171.058 155.856 171.065C156.255 171.09 156.628 171.269 156.897 171.564C157.166 171.86 157.309 172.249 157.295 172.648Z" fill="white"/>
<path d="M161.885 172.67C161.865 172.958 161.761 173.234 161.587 173.465C161.412 173.695 161.174 173.869 160.902 173.966C160.629 174.062 160.335 174.077 160.054 174.009C159.773 173.94 159.519 173.791 159.322 173.579C159.125 173.368 158.994 173.104 158.945 172.819C158.897 172.534 158.932 172.241 159.048 171.976C159.163 171.711 159.354 171.486 159.596 171.328C159.838 171.17 160.121 171.086 160.41 171.087C160.815 171.102 161.198 171.277 161.474 171.574C161.751 171.87 161.898 172.264 161.885 172.67Z" fill="white"/>
<path d="M166.467 172.691C166.481 172.894 166.454 173.098 166.386 173.289C166.318 173.481 166.211 173.657 166.073 173.805C165.934 173.954 165.766 174.073 165.58 174.154C165.393 174.235 165.192 174.276 164.989 174.276C164.785 174.276 164.584 174.235 164.398 174.154C164.211 174.073 164.044 173.954 163.905 173.805C163.766 173.657 163.66 173.481 163.592 173.289C163.524 173.098 163.496 172.894 163.51 172.691C163.496 172.488 163.524 172.285 163.592 172.093C163.66 171.902 163.766 171.726 163.905 171.577C164.044 171.429 164.211 171.31 164.398 171.229C164.584 171.148 164.785 171.106 164.989 171.106C165.192 171.106 165.393 171.148 165.58 171.229C165.766 171.31 165.934 171.429 166.073 171.577C166.211 171.726 166.318 171.902 166.386 172.093C166.454 172.285 166.481 172.488 166.467 172.691Z" fill="white"/>
<path d="M171.05 172.713C171.03 173.001 170.927 173.278 170.752 173.508C170.577 173.738 170.339 173.912 170.067 174.009C169.795 174.105 169.5 174.12 169.219 174.052C168.939 173.983 168.684 173.834 168.487 173.622C168.29 173.411 168.159 173.147 168.111 172.862C168.062 172.577 168.098 172.284 168.213 172.019C168.329 171.754 168.519 171.529 168.761 171.371C169.003 171.213 169.286 171.13 169.575 171.13C169.98 171.145 170.363 171.32 170.639 171.617C170.916 171.914 171.063 172.308 171.05 172.713Z" fill="white"/>
<path d="M175.632 172.734C175.613 173.024 175.508 173.302 175.332 173.533C175.155 173.764 174.915 173.938 174.641 174.033C174.366 174.128 174.07 174.141 173.788 174.069C173.507 173.998 173.253 173.845 173.057 173.63C172.862 173.415 172.734 173.148 172.689 172.86C172.645 172.573 172.686 172.28 172.807 172.016C172.928 171.752 173.124 171.529 173.37 171.375C173.617 171.222 173.903 171.144 174.194 171.152C174.592 171.176 174.966 171.355 175.235 171.651C175.504 171.946 175.646 172.335 175.632 172.734Z" fill="white"/>
</g>
<path d="M169.122 68.881C169.622 68.6609 170.046 68.2988 170.341 67.8396C170.637 67.3803 170.79 66.8444 170.784 66.2984C170.802 65.9434 170.748 65.5884 170.625 65.2549C170.502 64.9214 170.313 64.6165 170.068 64.3587C169.823 64.1008 169.529 63.8955 169.202 63.7552C168.876 63.6149 168.524 63.5425 168.169 63.5425C167.813 63.5425 167.461 63.6149 167.135 63.7552C166.808 63.8955 166.514 64.1008 166.269 64.3587C166.024 64.6165 165.835 64.9214 165.712 65.2549C165.589 65.5884 165.535 65.9434 165.554 66.2984C165.543 66.8498 165.695 67.3922 165.992 67.857C166.289 68.3218 166.717 68.6881 167.223 68.9098C163.194 69.5141 163.374 73.8881 163.374 73.8881L172.899 73.9313C172.899 73.9313 173.122 69.4781 169.122 68.881Z" fill="#4CAF4F"/>
<path opacity="0.1" d="M169.122 68.881C169.622 68.6609 170.046 68.2988 170.341 67.8396C170.637 67.3803 170.79 66.8444 170.784 66.2984C170.802 65.9434 170.748 65.5884 170.625 65.2549C170.502 64.9214 170.313 64.6165 170.068 64.3587C169.823 64.1008 169.529 63.8955 169.202 63.7552C168.876 63.6149 168.524 63.5425 168.169 63.5425C167.813 63.5425 167.461 63.6149 167.135 63.7552C166.808 63.8955 166.514 64.1008 166.269 64.3587C166.024 64.6165 165.835 64.9214 165.712 65.2549C165.589 65.5884 165.535 65.9434 165.554 66.2984C165.543 66.8498 165.695 67.3922 165.992 67.857C166.289 68.3218 166.717 68.6881 167.223 68.9098C163.194 69.5141 163.374 73.8881 163.374 73.8881L172.899 73.9313C172.899 73.9313 173.122 69.4781 169.122 68.881Z" fill="black"/>
<path d="M184.599 76.7524L150.651 76.5983L150.632 80.6557L184.581 80.8098L184.599 76.7524Z" fill="#4CAF4F"/>
<path opacity="0.2" d="M184.599 76.7524L150.651 76.5983L150.632 80.6557L184.581 80.8098L184.599 76.7524Z" fill="white"/>
<path d="M59.7937 97.7796H59.4555L58.4772 97.8515C57.9477 97.8833 57.4212 97.9531 56.9017 98.0602C56.5652 98.1074 56.2314 98.1722 55.9017 98.2544L54.7866 98.5637C52.8887 99.146 51.098 100.033 49.4846 101.19C47.3529 102.737 45.5729 104.718 44.2617 107.002C43.491 108.319 42.8777 109.722 42.4344 111.182C41.9686 112.769 41.7004 114.407 41.6359 116.06C41.593 116.928 41.6074 117.798 41.679 118.664C41.679 119.103 41.8013 119.542 41.8589 119.988C41.9073 120.437 41.9915 120.882 42.1107 121.319C42.7576 124.205 44.0702 126.901 45.9437 129.191C47.8173 131.48 50.2 133.3 52.9018 134.505C54.8572 135.349 56.9531 135.82 59.0815 135.894C61.2798 136.015 63.4803 135.699 65.5561 134.966L66.1892 134.728H66.2755L66.3475 134.771L75.4192 139.376L75.153 139.606C74.1818 136.599 73.2466 133.685 72.3401 130.887V130.779L72.4193 130.7C74.6199 128.483 76.2536 125.769 77.1817 122.786C78.0224 120.06 78.2677 117.184 77.9011 114.355C77.5751 111.84 76.7665 109.412 75.5199 107.204C74.4453 105.307 73.0591 103.605 71.4193 102.168C70.0664 101.031 68.569 100.078 66.9662 99.3335C65.7533 98.8104 64.4902 98.4127 63.1965 98.1465L61.7576 97.9091L60.7145 97.8299L60.0814 97.7868H59.8656C59.9373 97.7788 60.0097 97.7788 60.0814 97.7868H60.7217L61.7648 97.8299L63.2037 98.0386C64.5135 98.2853 65.7938 98.6687 67.0237 99.1824C68.6541 99.9179 70.1785 100.869 71.556 102.01C73.2259 103.44 74.6415 105.143 75.7429 107.046C77.0249 109.277 77.8583 111.738 78.1961 114.29C78.5931 117.163 78.3648 120.088 77.527 122.865C76.5928 125.91 74.9339 128.682 72.6926 130.944L72.7358 130.757C73.6422 133.556 74.5847 136.469 75.5631 139.469L75.6997 139.908L75.2897 139.699L66.218 135.102H66.3762L65.7288 135.34C63.613 136.084 61.3717 136.407 59.1318 136.289C56.9575 136.207 54.8178 135.719 52.8226 134.851C49.0168 133.221 45.8503 130.388 43.8085 126.786C42.8689 125.123 42.1827 123.328 41.7725 121.462C41.6602 121.015 41.5761 120.561 41.5208 120.103C41.4632 119.65 41.3697 119.204 41.3481 118.757C41.1534 116.198 41.4239 113.624 42.1466 111.161C42.601 109.68 43.2314 108.26 44.0243 106.93C45.3668 104.625 47.1838 102.632 49.3551 101.082C50.9951 99.922 52.8158 99.042 54.7434 98.4774L55.8729 98.1896C56.2053 98.1125 56.5415 98.0525 56.8801 98.0098C57.405 97.9126 57.9364 97.8549 58.47 97.8371L59.4555 97.8012C59.5676 97.7861 59.6806 97.7789 59.7937 97.7796Z" fill="#4CAF4F"/>
<path d="M63.8942 114.556H62.5633L59.6857 110.513V107.858C59.6857 107.858 57.6282 107.729 57.8728 111.204C58.1174 114.678 57.8728 113.794 57.8728 113.794C57.8728 113.794 53.506 113.794 53.1463 114.189C52.7866 114.585 52.765 118.801 52.7147 121.153C52.6871 121.72 52.8498 122.28 53.177 122.744C53.5041 123.208 53.977 123.55 54.5204 123.714C54.6727 123.756 54.83 123.778 54.988 123.779C56.0815 123.779 61.6425 122.894 61.6425 122.894H63.9374L63.8942 114.556Z" fill="#4CAF4F"/>
<path d="M67.6999 113.844L66.8798 122.937H64.6064V114.031L67.6999 113.844Z" fill="#4CAF4F"/>
<path d="M94.8144 298.969V292.818L83.7859 292.739L83.6924 302.041L84.3758 302.091C87.4189 302.285 99.8574 302.573 101.901 301.94C104.174 301.235 94.8144 298.969 94.8144 298.969Z" fill="#4CAF4F"/>
<path d="M102.159 301.364C102.159 301.465 98.0301 301.551 92.9439 301.551C87.8577 301.551 83.7283 301.465 83.7283 301.364C83.7283 301.264 87.8577 301.177 92.9439 301.177C98.0301 301.177 102.159 301.264 102.159 301.364Z" fill="#263238"/>
<path d="M95.0087 300.228C94.9152 300.177 95.0087 299.854 95.2317 299.508C95.4547 299.163 95.7569 299.019 95.8288 299.091C95.9007 299.163 95.7497 299.436 95.5338 299.731C95.318 300.026 95.1022 300.278 95.0087 300.228Z" fill="#263238"/>
<path d="M95.7137 300.63C95.6129 300.63 95.6633 300.228 95.8791 299.846C96.0949 299.465 96.3827 299.235 96.4618 299.292C96.541 299.35 96.4115 299.674 96.21 300.012C96.0086 300.35 95.8072 300.666 95.7137 300.63Z" fill="#263238"/>
<path d="M87.0519 301.336C87.0087 301.336 86.8433 301.206 86.6059 300.933C86.3161 300.581 85.9933 300.258 85.6419 299.969C85.2963 299.693 84.8847 299.512 84.4477 299.443C84.1095 299.4 83.8937 299.443 83.8721 299.4C83.8505 299.357 84.0592 299.206 84.4548 299.177C84.977 299.166 85.4864 299.339 85.8937 299.666C86.2752 299.978 86.597 300.355 86.8433 300.782C87.0087 301.098 87.0951 301.307 87.0519 301.336Z" fill="#263238"/>
<path d="M95.0446 299.069C95.095 299.156 94.9079 299.372 94.5914 299.487C94.2749 299.602 93.9943 299.559 93.9799 299.487C93.9655 299.415 94.1885 299.264 94.4619 299.163C94.7353 299.062 94.9871 298.983 95.0446 299.069Z" fill="#263238"/>
<path d="M94.8719 298.472C94.8719 298.58 94.5842 298.667 94.2101 298.674C93.836 298.681 93.541 298.595 93.5482 298.494C93.5554 298.393 93.8504 298.3 94.2101 298.292C94.5698 298.285 94.8575 298.372 94.8719 298.472Z" fill="#263238"/>
<path d="M121.972 298.969V292.818L110.943 292.739L110.85 301.947L111.533 301.997C114.576 302.192 127.022 302.573 129.058 301.94C131.331 301.235 121.972 298.969 121.972 298.969Z" fill="#4CAF4F"/>
<path d="M129.317 301.379C129.317 301.479 125.195 301.566 120.101 301.566C115.008 301.566 110.893 301.479 110.893 301.379C110.893 301.278 115.015 301.192 120.101 301.192C125.188 301.192 129.317 301.278 129.317 301.379Z" fill="#263238"/>
<path d="M122.166 300.228C122.08 300.177 122.166 299.854 122.389 299.508C122.612 299.163 122.914 299.019 122.986 299.091C123.058 299.163 122.907 299.436 122.691 299.731C122.476 300.026 122.26 300.278 122.166 300.228Z" fill="#263238"/>
<path d="M122.871 300.63C122.778 300.63 122.821 300.228 123.044 299.846C123.267 299.465 123.547 299.235 123.626 299.292C123.706 299.35 123.569 299.674 123.367 300.012C123.166 300.35 122.972 300.666 122.871 300.63Z" fill="#263238"/>
<path d="M114.21 301.336C114.166 301.336 114.008 301.206 113.764 300.933C113.474 300.581 113.151 300.258 112.8 299.969C112.454 299.693 112.042 299.512 111.605 299.443C111.274 299.4 111.051 299.443 111.03 299.4C111.008 299.357 111.217 299.206 111.613 299.177C112.135 299.166 112.644 299.339 113.051 299.666C113.435 299.975 113.757 300.354 114.001 300.782C114.166 301.098 114.253 301.307 114.21 301.336Z" fill="#263238"/>
<path d="M122.202 299.069C122.252 299.156 122.065 299.372 121.749 299.487C121.432 299.602 121.152 299.559 121.137 299.487C121.123 299.415 121.346 299.264 121.619 299.163C121.893 299.062 122.145 298.983 122.202 299.069Z" fill="#263238"/>
<path d="M122.044 298.472C122.044 298.58 121.756 298.667 121.382 298.674C121.008 298.681 120.72 298.595 120.727 298.494C120.735 298.393 121.022 298.3 121.382 298.292C121.742 298.285 122.044 298.372 122.044 298.472Z" fill="#263238"/>
<path d="M162.604 116.311C162.316 116.017 161.604 116.16 161.604 116.16C161.675 115.746 161.675 115.323 161.604 114.909C161.475 114.506 160.568 114.585 160.568 114.585C160.526 114.246 160.526 113.903 160.568 113.563C160.575 113.488 160.559 113.413 160.522 113.347C160.484 113.281 160.428 113.229 160.359 113.196C159.931 113.022 159.47 112.938 159.007 112.952C158.453 112.556 160.698 109.412 161.532 108.405C162.367 107.398 162.216 106.614 161.475 106.614C160.964 106.614 158.345 109.635 157.539 110.65C156.734 111.664 154.597 114.484 154.525 112.232C154.453 109.981 153.547 108.283 152.978 107.995C152.41 107.707 151.806 108.384 152.115 109.009C152.387 109.721 152.556 110.467 152.619 111.225C152.697 111.83 152.67 112.443 152.54 113.038C152.301 114.146 151.976 115.233 151.568 116.29H151.511C151.511 116.29 135.813 131.347 134.677 132.419C133.662 133.383 113.26 131.275 109.167 130.843C107.776 130.64 106.371 130.544 104.965 130.556C103.188 130.635 102.872 130.887 101.102 130.908C96.6326 130.958 92.1737 131.35 87.7642 132.081C85.7676 132.42 83.9026 133.302 82.3726 134.629C80.8426 135.956 79.7065 137.677 79.0882 139.606C74.966 152.483 65.6281 182.964 63.9806 200.086C62.7357 202.344 61.6119 204.666 60.6138 207.043C59.4556 210.194 59.7361 210.302 60.1246 210.374C61.1749 210.568 62.3692 204.914 62.8152 206.28C63.2612 207.647 60.5491 213.021 61.6498 213.18C63.0886 213.381 64.2324 207.424 64.3691 206.949C64.5058 206.475 65.218 206.626 65.0885 207.072C64.8799 207.705 62.8584 214.417 64.2684 214.633C65.0454 214.748 65.1317 213.331 65.1317 213.331C65.1317 213.331 66.5705 206.906 67.2252 207.036C67.8798 207.165 67.182 210.957 66.8511 212.223C66.5201 213.489 66.9806 214.129 67.6568 213.82C68.1172 213.604 69.2179 209.755 69.5201 208.503C69.8222 207.252 70.5776 203.784 71.5919 205.791C72.6063 207.798 74.1458 208.964 74.7789 208.993C74.9216 208.976 75.056 208.917 75.165 208.824C75.274 208.73 75.3525 208.606 75.3904 208.468C75.4283 208.329 75.4239 208.183 75.3778 208.047C75.3316 207.911 75.2458 207.792 75.1314 207.705C74.5869 207.173 74.1196 206.568 73.743 205.906C73.4074 205.391 73.1639 204.822 73.0236 204.223C72.7337 203.03 72.5649 201.81 72.52 200.583L72.4049 199.863C74.0163 191.885 78.6565 168.468 85.3542 153.512L88.1023 159.166L89.2965 163.353L81.973 181.432L113.21 181.022L108.548 163.08L114.21 144.376C120.332 144.512 136.051 144.742 138.669 143.555C141.964 142.117 159.007 120.592 159.007 120.592C160.118 119.729 161.182 118.807 162.194 117.829C162.194 117.829 163.23 116.959 162.604 116.311Z" fill="#FFBE9D"/>
<path d="M80.5989 168.073C81.5054 164.979 86.1599 149.685 86.1599 149.685C86.1599 149.685 88.4477 162.152 87.8434 163.656C87.2875 164.943 86.6308 166.184 85.8794 167.368C80.5989 175.404 81.2896 179.425 81.2896 179.425L113.195 178.454C113.267 173.994 110.627 163.62 110.08 161.965C109.533 160.31 111.354 154.893 111.354 154.893C111.354 154.893 114.951 151.231 114.821 149.347C114.753 147.654 114.543 145.969 114.195 144.311L133.619 145.03L133.008 131.865L105.109 129.074C104.138 131.815 95.354 130.469 95.354 130.469C85.8722 130.786 85.2823 132.527 81.3399 135.592C77.3976 138.656 70.8726 164.958 70.8726 164.958L80.5989 168.073Z" fill="#4CAF4F"/>
<path d="M99.4617 164.958C98.9088 165.057 98.3456 165.086 97.7855 165.044C96.7423 165.044 95.3107 164.972 93.7352 164.814C92.1597 164.656 90.7353 164.433 89.7209 164.231C89.1616 164.159 88.6132 164.019 88.0879 163.814C88.6503 163.814 89.2115 163.867 89.7641 163.972C90.7857 164.102 92.2029 164.282 93.7712 164.44C95.3395 164.598 96.7639 164.706 97.7927 164.778C98.3534 164.785 98.9123 164.845 99.4617 164.958Z" fill="#263238"/>
<path d="M101.649 162.246C101.096 162.517 100.511 162.717 99.9078 162.843C97.0377 163.597 94.0765 163.948 91.1095 163.886C90.4956 163.906 89.8816 163.848 89.2822 163.713C89.8882 163.637 90.4989 163.605 91.1095 163.62C92.239 163.584 93.7929 163.505 95.5051 163.303C97.2173 163.102 98.7424 162.814 99.8215 162.584C100.421 162.424 101.032 162.311 101.649 162.246Z" fill="#263238"/>
<path d="M112.382 150.145C112.368 150.694 112.293 151.239 112.159 151.771C111.972 152.771 111.684 154.138 111.318 155.634C110.951 157.131 110.598 158.512 110.282 159.447C110.154 159.982 109.966 160.501 109.72 160.994C109.761 160.447 109.862 159.906 110.023 159.382C110.296 158.26 110.605 156.965 110.951 155.548C111.296 154.131 111.627 152.836 111.9 151.713C111.998 151.173 112.159 150.647 112.382 150.145Z" fill="#263238"/>
<path d="M80.9369 166.238C79.2726 165.981 77.6301 165.599 76.0234 165.094C74.3816 164.711 72.7705 164.206 71.2034 163.584C72.8669 163.845 74.5091 164.227 76.1169 164.728C77.7591 165.11 79.3702 165.615 80.9369 166.238Z" fill="#263238"/>
<path d="M114.541 144.153C114.269 144.199 113.992 144.199 113.72 144.153C112.969 144.075 112.231 143.899 111.526 143.627C110.349 143.185 109.278 142.502 108.381 141.621C107.484 140.74 106.781 139.681 106.318 138.512C105.805 137.227 105.587 135.843 105.677 134.462C105.71 133.323 106.05 132.214 106.663 131.254C107.094 130.606 107.738 130.131 108.483 129.908C108.682 129.853 108.888 129.827 109.095 129.829C109.239 129.829 109.31 129.829 109.31 129.829C109.31 129.829 109.008 129.829 108.526 130.023C107.843 130.276 107.263 130.749 106.879 131.369C105.9 132.908 105.627 135.721 106.67 138.347C107.156 139.585 107.916 140.697 108.893 141.599C109.694 142.337 110.617 142.93 111.62 143.354C112.561 143.726 113.541 143.994 114.541 144.153Z" fill="#263238"/>
<path d="M131.31 144.771C131.13 142.565 131.072 140.351 131.137 138.138C131.081 135.928 131.148 133.716 131.339 131.513C131.519 133.716 131.576 135.928 131.511 138.138C131.572 140.351 131.504 142.566 131.31 144.771Z" fill="#263238"/>
<path d="M104.922 129.88C105.001 128.275 105.167 126.462 105.167 126.462C105.167 126.462 109.138 126.023 109.375 121.923C109.613 117.822 109.375 108.362 109.375 108.362L102.181 104.679L94.1958 110.959L95.426 131.462L102.75 131.93C103.309 131.945 103.852 131.738 104.26 131.354C104.667 130.969 104.905 130.439 104.922 129.88Z" fill="#FFBE9D"/>
<path d="M105.634 118.678C105.634 118.678 105.634 118.757 105.569 118.851C105.516 118.919 105.447 118.973 105.368 119.008C105.289 119.043 105.202 119.058 105.116 119.052C104.656 119.052 104.21 118.52 104.052 117.901C103.976 117.601 103.976 117.288 104.052 116.988C104.066 116.857 104.114 116.732 104.189 116.624C104.264 116.516 104.365 116.428 104.483 116.369C104.58 116.329 104.689 116.329 104.785 116.369C104.857 116.405 104.915 116.463 104.951 116.534C105.001 116.657 104.951 116.736 104.951 116.729C104.951 116.722 104.951 116.657 104.879 116.585C104.841 116.533 104.786 116.497 104.724 116.484C104.661 116.471 104.596 116.481 104.541 116.513C104.452 116.566 104.379 116.641 104.328 116.73C104.276 116.82 104.248 116.921 104.246 117.024C104.185 117.291 104.185 117.569 104.246 117.837C104.39 118.398 104.778 118.851 105.123 118.894C105.191 118.903 105.26 118.898 105.325 118.88C105.391 118.861 105.452 118.829 105.505 118.786C105.591 118.729 105.62 118.671 105.634 118.678Z" fill="#EB996E"/>
<path d="M111.843 106.146C111.289 104.261 109.282 103.326 107.454 102.808C104.67 102.017 101.663 101.672 98.9437 102.672C96.2244 103.672 92.9583 105.427 92.9583 108.427C91.354 108.297 90.4331 109.7 89.8001 111.441C89.3953 112.502 89.1528 113.617 89.0807 114.75C88.8792 118.678 87.7785 124.103 85.2318 126.98C83.793 128.585 81.8003 129.692 80.9802 131.692C80.2607 133.426 80.6348 135.484 79.9658 137.239C79.3687 138.786 78.0522 139.886 77.0882 141.232C76.106 142.758 75.5281 144.509 75.4085 146.32C75.289 148.13 75.6318 149.942 76.4047 151.584C77.1832 153.184 78.2793 154.609 79.6262 155.771C80.9731 156.934 82.5426 157.81 84.2391 158.346C87.5994 159.369 91.1829 159.404 94.5625 158.447C97.099 157.841 99.4651 156.667 101.483 155.016C103.548 153.329 104.966 150.981 105.498 148.368C106.008 145.433 105.188 142.448 104.577 139.527C102.663 130.297 103.21 129.815 105.627 121.247C105.685 121.096 105.713 120.937 105.757 120.786C105.8 120.635 105.821 120.563 105.85 120.448C105.919 120.109 105.955 119.765 105.958 119.419C105.605 119.551 105.222 119.578 104.853 119.499C104.485 119.42 104.147 119.238 103.879 118.973C103.61 118.691 103.423 118.342 103.337 117.962C103.25 117.582 103.269 117.185 103.39 116.815C103.559 116.41 103.812 116.045 104.132 115.744C104.452 115.443 104.831 115.212 105.246 115.067C106.044 114.736 106.9 114.563 107.685 114.196C109.346 113.405 110.497 111.765 111.282 110.045C111.926 108.854 112.125 107.471 111.843 106.146Z" fill="#263238"/>
<path d="M105.922 118.873C106.074 119.097 106.199 119.339 106.296 119.592C106.512 120.045 106.8 120.686 107.116 121.426L107.174 121.563H107.023L106.303 121.628C105.807 121.628 105.39 121.721 104.9 121.714C104.858 121.705 104.818 121.684 104.786 121.656C104.753 121.627 104.728 121.59 104.713 121.549C104.692 121.483 104.692 121.413 104.713 121.347C104.73 121.25 104.752 121.154 104.778 121.06L104.908 120.549C104.973 120.208 105.074 119.875 105.21 119.556C105.196 119.903 105.146 120.248 105.059 120.585L104.958 121.096C104.922 121.268 104.857 121.534 104.958 121.513C105.318 121.513 105.828 121.434 106.303 121.405L107.023 121.34L106.929 121.498C106.62 120.779 106.361 120.103 106.21 119.635C106.077 119.396 105.98 119.139 105.922 118.873Z" fill="#4CAF4F"/>
<path d="M81.2894 179.425L113.195 178.454L127.08 232.654L124.526 294.825H107.656L109.72 233.978L97.3825 196.245L99.2818 297.235L82.2319 297.487L80.4405 202.561C80.3614 199.921 79.4981 193.971 79.8218 191.353L81.2894 179.425Z" fill="#263238"/>
<path d="M101.627 197.014C101.105 197.047 100.581 197.016 100.066 196.921C99.1021 196.806 97.7856 196.604 96.3396 196.317C94.8936 196.029 93.5986 195.698 92.6634 195.432C92.1635 195.322 91.6799 195.148 91.2246 194.914C91.2246 194.806 93.5699 195.367 96.4475 195.95C99.3251 196.533 101.642 196.907 101.627 197.014Z" fill="#455A64"/>
<path d="M124.353 291.415C124.353 291.516 120.533 291.602 115.821 291.602C111.109 291.602 107.282 291.516 107.282 291.415C107.282 291.314 111.102 291.228 115.821 291.228C120.54 291.228 124.353 291.307 124.353 291.415Z" fill="#455A64"/>
<path d="M99.1309 294.609C99.1309 294.717 95.4188 294.796 90.8434 294.796C86.2679 294.796 82.563 294.717 82.563 294.609C82.563 294.501 86.2751 294.422 90.8434 294.422C95.4116 294.422 99.1309 294.508 99.1309 294.609Z" fill="#455A64"/>
<path d="M96.9294 294.35C96.8287 294.35 96.3827 272.286 95.9294 245.071C95.4762 217.856 95.21 195.777 95.3035 195.777C95.3971 195.777 95.8575 217.834 96.3035 245.064C96.7496 272.293 97.0373 294.35 96.9294 294.35Z" fill="#455A64"/>
<path d="M122.087 291.415C122.079 291.317 122.079 291.218 122.087 291.12V290.257C122.087 289.48 122.145 288.365 122.188 286.947C122.288 284.07 122.432 279.89 122.612 274.768C123.001 264.466 123.547 250.265 124.145 234.589C124.145 234.438 124.145 234.294 124.145 234.165V234.215C120.368 219.107 116.95 205.396 114.469 195.475L111.591 183.741C111.26 182.367 111.008 181.295 110.828 180.547C110.742 180.195 110.684 179.921 110.634 179.713C110.606 179.619 110.589 179.523 110.584 179.425C110.621 179.516 110.65 179.61 110.67 179.706C110.728 179.907 110.8 180.18 110.9 180.526C111.095 181.245 111.375 182.339 111.735 183.705C112.454 186.482 113.469 190.482 114.735 195.41C117.238 205.324 120.691 219 124.519 234.129V234.179C124.519 234.308 124.519 234.46 124.519 234.603C123.878 250.279 123.296 264.473 122.871 274.775C122.648 279.904 122.461 284.055 122.332 286.947C122.26 288.386 122.202 289.48 122.166 290.257C122.166 290.624 122.123 290.911 122.116 291.12C122.117 291.219 122.107 291.318 122.087 291.415Z" fill="#455A64"/>
<path d="M116.584 232.898C115.372 233.297 114.124 233.574 112.857 233.726C111.303 233.992 109.979 234.179 109.382 234.208V234.064C109.577 234.121 109.677 234.157 109.677 234.186C109.677 234.215 109.555 234.186 109.354 234.186H108.922L109.354 234.057C109.915 233.891 111.238 233.618 112.792 233.337C114.039 233.067 115.308 232.92 116.584 232.898Z" fill="#455A64"/>
<path d="M116.289 234.963C115.166 235.015 114.042 234.964 112.929 234.812C111.805 234.789 110.686 234.666 109.584 234.445C111.832 234.262 114.095 234.437 116.289 234.963Z" fill="#455A64"/>
<path opacity="0.2" d="M81.1528 180.569C81.5307 181.054 82.0066 181.454 82.5496 181.743C83.0925 182.032 83.6903 182.203 84.3038 182.245C85.5888 182.397 86.8886 182.373 88.167 182.173C96.4042 181.259 105.131 180.418 113.195 178.454C102.757 179.037 91.7281 178.842 81.2895 179.425L81.1816 180.317" fill="black"/>
<g opacity="0.2">
<path d="M91.908 195.281L97.7927 218.115L97.3826 196.245L91.908 195.281Z" fill="black"/>
</g>
</svg>
